{"title":"Kylie Minogue - Into The Blue [Music Video] 720p [Sbyky]","uid":9688221,"size":41630219,"categoryP":"video","categoryS":"music_videos","magnet":"?xt=urn:btih:ac2b5efd22ca172b82ebeeb4a0702d14e3c97d1c&amp;dn=Kylie+Minogue+-+Into+The+Blue+%5BMusic+Video%5D+720p+%5BSbyky%5D&amp;tr=udp%3A%2F%2Ftracker.openbittorrent.com%3A80&amp;tr=udp%3A%2F%2Fopen.demonii.com%3A1337&amp;tr=udp%3A%2F%2Ftracker.coppersurfer.tk%3A6969&amp;tr=udp%3A%2F%2Fexodus.desync.com%3A6969","seeders":1,"leechers":1,"uploader":"Sbyky","files":1,"time":1393815857,"description":"\n\nGeneral\nComplete name                            : Kylie Minogue - Into The Blue [Music Video] 720p [Sbyky].MP4\nFormat                                   : MPEG-4\nFormat profile                           : Base Media\nCodec ID                                 : isom\nFile size                                : 39.7 MiB\nDuration                                 : 4mn 32s\nOverall bit rate mode                    : Variable\nOverall bit rate                         : 1 224 Kbps\nEncoded date                             : UTC 2014-02-07 05:21:50\nTagged date                              : UTC 2014-02-07 05:21:50\n\nVideo\nID                                       : 1\nFormat                                   : AVC\nFormat/Info                              : Advanced Video Codec\nFormat profile                           : &lt;a class=&quot;__cf_email__&quot; href=&quot;/cdn-cgi/l/email-protection&quot; data-cfemail=&quot;e4a9858d8aa4a8d7cad5&quot;&gt;[email&amp;#160;protected]&lt;/a&gt;&lt;script cf-hash='f9e31' type=&quot;text/javascript&quot;&gt;\n/* &lt;![CDATA[ */!function(){try{var t=&quot;currentScript&quot;in document?document.currentScript:function(){for(var t=document.getElementsByTagName(&quot;script&quot;),e=t.length;e--;)if(t[e].getAttribute(&quot;cf-hash&quot;))return t[e]}();if(t&amp;&amp;t.previousSibling){var e,r,n,i,c=t.previousSibling,a=c.getAttribute(&quot;data-cfemail&quot;);if(a){for(e=&quot;&quot;,r=parseInt(a.substr(0,2),16),n=2;a.length-n;n+=2)i=parseInt(a.substr(n,2),16)^r,e+=String.fromCharCode(i);e=document.createTextNode(e),c.parentNode.replaceChild(e,c)}}}catch(u){}}();/* ]]&gt; */&lt;/script&gt;\nFormat settings, CABAC                   : Yes\nFormat settings, ReFrames                : 3 frames\nCodec ID                                 : avc1\nCodec ID/Info                            : Advanced Video Coding\nDuration                                 : 4mn 31s\nDuration_LastFrame                       : -39ms\nBit rate                                 : 1 095 Kbps\nWidth                                    : 1 280 pixels\nHeight                                   : 720 pixels\nDisplay aspect ratio                     : 16:9\nFrame rate mode                          : Constant\nFrame rate                               : 25.000 fps\nColor space                              : YUV\nChroma subsampling                       : 4:2:0\nBit depth                                : 8 bits\nScan type                                : Progressive\nBits/(Pixel*Frame)                       : 0.048\nStream size                              : 35.5 MiB (89%)\nEncoded date                             : UTC 2014-02-07 05:21:50\nTagged date                              : UTC 2014-02-07 05:21:50\n\nAudio\nID                                       : 2\nFormat                                   : AAC\nFormat/Info                              : Advanced Audio Codec\nFormat profile                           : LC\nCodec ID                                 : 40\nDuration                                 : 4mn 32s\nBit rate mode                            : Variable\nBit rate                                 : 126 Kbps\nChannel(s)                               : 2 channels\nChannel positions                        : Front: L R\nSampling rate                            : 44.1 KHz\nCompression mode                         : Lossy\nStream size                              : 4.07 MiB (10%)\nEncoded date                             : UTC 2014-02-07 05:21:31\nTagged date                              : UTC 2014-02-07 05:21:31\n\nShared By Sbyky\n","torrent":{"xt":"urn:btih:ac2b5efd22ca172b82ebeeb4a0702d14e3c97d1c","amp;dn":"Kylie+Minogue+-+Into+The+Blue+%5BMusic+Video%5D+720p+%5BSbyky%5D","amp;tr":["udp%3A%2F%2Ftracker.openbittorrent.com%3A80","udp%3A%2F%2Fopen.demonii.com%3A1337","udp%3A%2F%2Ftracker.coppersurfer.tk%3A6969","udp%3A%2F%2Fexodus.desync.com%3A6969"],"infoHash":"ac2b5efd22ca172b82ebeeb4a0702d14e3c97d1c","infoHashBuffer":{"type":"Buffer","data":[172,43,94,253,34,202,23,43,130,235,238,180,160,112,45,20,227,201,125,28]},"announce":[],"urlList":[]}}